<svg width="16" height="16" viewBox="0 0 16 16" fill="none" xmlns="http://www.w3.org/2000/svg">
<path d="M4.21906 7.33789C3.83974 7.71721 3.83974 8.3324 4.21906 8.71416L5.89198 10.3871C6.40748 10.9026 7.09561 11.1871 7.82508 11.1871C8.55456 11.1871 9.24269 10.9026 9.75818 10.3871L11.4311 8.71416C11.8104 8.33483 11.8104 7.71964 11.4311 7.33789C11.0518 6.95856 10.4366 6.95856 10.0548 7.33789L8.79771 8.59501V4.37866C8.79771 3.84129 8.36246 3.40604 7.82508 3.40604C7.28771 3.40604 6.85246 3.84129 6.85246 4.37866V8.59501L5.59533 7.33789C5.21601 6.95856 4.60082 6.95856 4.21906 7.33789Z" fill="white"/>
<path d="M6.61017 2.0565C6.66853 2.0565 6.72446 2.05164 6.78281 2.04191C7.48068 1.91547 8.17124 1.91547 8.8691 2.04191C9.39675 2.13674 9.90252 1.7866 9.99978 1.25651C10.0946 0.728863 9.74447 0.223097 9.21439 0.125834C8.28796 -0.0419446 7.36396 -0.0419446 6.43753 0.125834C5.90988 0.220665 5.5573 0.726432 5.65213 1.25651C5.73724 1.72581 6.14574 2.0565 6.60774 2.0565H6.61017Z" fill="white"/>
<path d="M15.263 5.18141C15.105 4.73887 14.908 4.31334 14.677 3.91699C14.4485 3.52065 14.1786 3.13646 13.8746 2.77659C13.5269 2.36565 12.9141 2.31459 12.5032 2.6623C12.0923 3.01002 12.0412 3.62277 12.3889 4.03371C12.6175 4.30361 12.8217 4.59297 12.992 4.88962C13.1622 5.18628 13.3105 5.50724 13.4321 5.84037C13.5755 6.23671 13.9476 6.48473 14.3463 6.48473C14.4558 6.48473 14.5676 6.46528 14.6746 6.42638C15.1804 6.24401 15.443 5.68718 15.2606 5.18141H15.263Z" fill="white"/>
<path d="M14.5188 9.16399C14.0131 8.98162 13.4562 9.24423 13.2739 9.75C13.1547 10.0831 13.0064 10.4041 12.8338 10.7007C12.6635 10.9974 12.4593 11.2843 12.2307 11.5567C11.883 11.9676 11.9341 12.5803 12.345 12.9281C12.5274 13.0837 12.7511 13.1591 12.9724 13.1591C13.2496 13.1591 13.5219 13.0423 13.7164 12.8138C14.0204 12.4539 14.2903 12.0721 14.5188 11.6734C14.7474 11.277 14.9444 10.8515 15.1048 10.409C15.2872 9.90319 15.0246 9.34636 14.5188 9.16399Z" fill="white"/>
<path d="M2.28811 5.81571C2.40726 5.48258 2.55558 5.16162 2.72822 4.86496C2.89843 4.56831 3.10269 4.28139 3.33125 4.00905C3.67897 3.59812 3.6279 2.98536 3.21697 2.63765C2.80603 2.28993 2.19328 2.34099 1.84556 2.75193C1.54162 3.1118 1.27171 3.49356 1.04314 3.89234C0.894819 4.14765 0.763513 4.41512 0.644366 4.68989C0.639503 4.70205 0.629777 4.71178 0.624914 4.72637C0.211547 5.69413 0 6.72269 0 7.78285C0 8.84302 0.204252 9.79619 0.568988 10.6983C0.576283 10.7153 0.581146 10.7299 0.58844 10.7469C0.617619 10.8175 0.64923 10.8904 0.68084 10.9609C0.702724 11.0095 0.724608 11.0557 0.746492 11.1044C0.768377 11.1481 0.790261 11.1919 0.812145 11.2381C0.848619 11.3135 0.887524 11.3889 0.92886 11.4642C0.941018 11.4861 0.950745 11.5056 0.962903 11.5275C0.98965 11.5785 1.0164 11.6296 1.04558 11.6782C1.07232 11.722 1.09907 11.7658 1.12582 11.8095C1.13068 11.8168 1.13311 11.8217 1.13798 11.829C1.2012 11.9311 1.26442 12.0332 1.3325 12.1329C1.3325 12.1329 1.3325 12.1329 1.3325 12.1354C1.49055 12.3688 1.66076 12.5974 1.84556 12.8162C1.85529 12.8284 1.86745 12.8357 1.87717 12.8454C3.01758 14.173 4.59567 15.114 6.38774 15.4399C6.38774 15.4399 6.3926 15.4399 6.39503 15.4399C6.40719 15.4399 6.41692 15.4423 6.42908 15.4447C6.52634 15.4618 6.6236 15.4763 6.72086 15.4909C6.74275 15.4934 6.76706 15.4958 6.78895 15.5007C6.88135 15.5128 6.97375 15.5225 7.06615 15.5323C7.10992 15.5371 7.15368 15.5396 7.19745 15.542C7.2704 15.5469 7.34335 15.5542 7.41873 15.5566C7.5403 15.5614 7.66188 15.5663 7.78346 15.5663C8.24303 15.5663 8.70989 15.525 9.17189 15.4399C9.69954 15.345 10.0521 14.8393 9.95729 14.3092C9.86245 13.7815 9.35669 13.4314 8.8266 13.5238C8.30868 13.6186 7.79319 13.6405 7.27769 13.5943C7.2704 13.5943 7.2631 13.5943 7.25824 13.5943C7.08803 13.5797 6.91782 13.5554 6.74761 13.5262C5.37377 13.2782 4.16285 12.5487 3.30207 11.5153C3.21454 11.4108 3.1343 11.3038 3.05405 11.1968C3.02731 11.1603 3.00299 11.1263 2.97868 11.0898C2.9033 10.9779 2.83035 10.8661 2.76227 10.7518C2.74038 10.7178 2.72093 10.6813 2.70148 10.6448C2.63096 10.5184 2.56288 10.3895 2.49966 10.2558C2.49236 10.2412 2.4875 10.229 2.4802 10.2144C2.41212 10.0637 2.34647 9.90804 2.29054 9.74999C2.29054 9.74999 2.29054 9.74756 2.29054 9.74513C2.0717 9.13237 1.95012 8.47098 1.95012 7.78285C1.95012 7.09472 2.0644 6.45278 2.28811 5.82787C2.28811 5.823 2.29297 5.82057 2.29297 5.81571H2.28811Z" fill="white"/>
</svg>
